HIERARCHY
ROOT Joint1
{
	OFFSET 0.000000 0.000000 0.000000
	CHANNELS 6 Xposition Yposition Zposition Xrotation Yrotation Zrotation
	JOINT Joint2
	{
		OFFSET -0.000000 0.000000 1.456275
		CHANNELS 6 Xposition Yposition Zposition Xrotation Yrotation Zrotation
		JOINT Joint3
		{
			OFFSET -0.000000 0.000002 1.471446
			CHANNELS 6 Xposition Yposition Zposition Xrotation Yrotation Zrotation
			JOINT Joint4
			{
				OFFSET 0.625745 0.000000 0.917755
				CHANNELS 6 Xposition Yposition Zposition Xrotation Yrotation Zrotation
				JOINT Joint5
				{
					OFFSET -0.629534 0.000001 0.940221
					CHANNELS 6 Xposition Yposition Zposition Xrotation Yrotation Zrotation
					JOINT Joint6
					{
						OFFSET -0.000001 0.113772 1.960660
						CHANNELS 6 Xposition Yposition Zposition Xrotation Yrotation Zrotation
						JOINT Joint7
						{
							OFFSET -0.669733 -0.113771 0.388340
							CHANNELS 6 Xposition Yposition Zposition Xrotation Yrotation Zrotation
							End Site
							{
								OFFSET 0.005509 0.005509 0.438980
							}
						}
					}
				}
			}
		}
	}
}
MOTION
Frames: 19
Frame Time: 0.041667
0.000000 0.000000 0.000000 -0.000000 1.019410 5.980757 -0.000000 0.000000 1.456275 0.000001 70.067946 -0.000001 -0.000000 0.000002 1.471446 -0.000005 -1.133464 -80.815666 0.625745 0.000001 0.917755 -0.000001 50.454703 0.000001 -0.629534 0.000001 0.940221 0.000003 1.709737 -94.263352 -0.000001 0.113772 1.960660 -88.303875 -147.767509 -0.000001 -0.669733 -0.113771 0.388340 -1.723510 2.559545 -135.546060 
0.000000 0.000000 0.000000 -0.000000 1.019410 5.976892 -0.000000 0.000000 1.456275 -0.000001 69.993627 -0.000002 -0.000000 0.000002 1.471445 -0.000005 -1.133467 -80.763483 0.625745 0.000001 0.917755 -0.000000 50.509331 0.000002 -0.629534 0.000001 0.940221 0.000000 1.709738 -94.202468 -0.000001 0.113772 1.960661 -88.303875 -147.846493 -0.000002 -0.669733 -0.113771 0.388340 -1.723503 2.560565 -135.603816 
0.000000 0.000000 0.000000 -0.000000 1.019410 5.970410 -0.000000 0.000000 1.456275 -0.000001 69.869003 -0.000000 -0.000000 0.000002 1.471446 -0.000004 -1.133467 -80.675981 0.625745 0.000001 0.917755 0.000004 50.600954 0.000001 -0.629534 0.000001 0.940221 0.000002 1.709734 -94.100377 -0.000001 0.113772 1.960661 -88.303875 -147.978917 0.000001 -0.669733 -0.113771 0.388340 -1.723486 2.562287 -135.700696 
0.000000 0.000000 0.000000 -0.000000 1.019410 5.961279 -0.000000 -0.000000 1.456275 -0.000001 69.693440 0.000000 -0.000000 0.000002 1.471446 -0.000005 -1.133467 -80.552717 0.625745 0.000001 0.917755 -0.000001 50.730004 0.000001 -0.629534 0.000001 0.940221 0.000002 1.709735 -93.956567 -0.000001 0.113772 1.960661 -88.303875 -148.165463 0.000001 -0.669733 -0.113771 0.388340 -1.723452 2.564709 -135.837136 
0.000000 0.000000 0.000000 -0.000000 1.019410 5.949467 -0.000000 0.000000 1.456275 -0.000001 69.466330 -0.000000 -0.000000 0.000002 1.471446 -0.000004 -1.133466 -80.393246 0.625745 0.000001 0.917755 -0.000000 50.896954 0.000001 -0.629534 0.000001 0.940220 0.000002 1.709737 -93.770513 -0.000001 0.113772 1.960661 -88.303875 -148.406815 -0.000001 -0.669733 -0.113771 0.388340 -1.723402 2.567840 -136.013669 
0.000000 0.000000 0.000000 -0.000000 1.019410 5.934942 -0.000000 -0.000000 1.456275 0.000001 69.187016 0.000000 -0.000000 0.000002 1.471446 -0.000004 -1.133463 -80.197144 0.625745 0.000000 0.917755 0.000002 51.102266 0.000003 -0.629534 0.000001 0.940221 0.000001 1.709736 -93.541708 -0.000001 0.113772 1.960661 -88.303882 -148.703586 0.000000 -0.669733 -0.113771 0.388340 -1.723328 2.571693 -136.230759 
0.000000 0.000000 0.000000 -0.000000 1.019410 5.917670 -0.000000 0.000000 1.456275 -0.000001 68.854918 -0.000000 -0.000000 0.000002 1.471446 -0.000004 -1.133465 -79.963962 0.625745 0.000001 0.917755 0.000001 51.346394 0.000001 -0.629534 0.000001 0.940221 0.000000 1.709737 -93.269669 -0.000001 0.113772 1.960661 -88.303882 -149.056475 0.000001 -0.669733 -0.113770 0.388340 -1.723216 2.576271 -136.488886 
0.000000 0.000000 0.000000 -0.000000 1.019410 5.897617 -0.000000 0.000000 1.456275 0.000003 68.469382 0.000000 -0.000000 0.000002 1.471446 -0.000004 -1.133464 -79.693268 0.625745 0.000001 0.917755 0.000003 51.629803 0.000002 -0.629534 0.000001 0.940221 0.000002 1.709737 -92.953854 -0.000001 0.113772 1.960660 -88.303882 -149.466150 -0.000001 -0.669733 -0.113771 0.388339 -1.723065 2.581588 -136.788540 
0.000000 0.000000 0.000000 -0.000000 1.019410 5.874756 -0.000000 -0.000000 1.456275 0.000000 68.029791 0.000001 -0.000000 0.000002 1.471445 -0.000004 -1.133464 -79.384618 0.625745 0.000001 0.917755 -0.000000 51.952936 0.000001 -0.629534 0.000001 0.940221 0.000001 1.709737 -92.593753 -0.000001 0.113772 1.960660 -88.303875 -149.933253 -0.000001 -0.669733 -0.113771 0.388340 -1.722856 2.587648 -137.130213 
0.000000 0.000000 0.000000 -0.000000 1.019410 5.849049 -0.000000 0.000000 1.456275 0.000000 67.535524 -0.000000 -0.000000 0.000002 1.471446 -0.000004 -1.133466 -79.037576 0.625745 0.000000 0.917755 0.000001 52.316268 0.000003 -0.629534 0.000001 0.940221 0.000002 1.709737 -92.188866 -0.000001 0.113772 1.960660 -88.303875 -150.458467 -0.000001 -0.669733 -0.113770 0.388339 -1.722578 2.594461 -137.514384 
0.000000 0.000000 0.000000 -0.000000 1.019410 5.820468 -0.000000 0.000000 1.456275 -0.000001 66.985953 0.000001 -0.000000 0.000002 1.471445 -0.000004 -1.133464 -78.651705 0.625744 0.000000 0.917755 0.000000 52.720253 0.000002 -0.629534 0.000001 0.940221 0.000001 1.709740 -91.738675 -0.000001 0.113772 1.960661 -88.303875 -151.042434 -0.000000 -0.669733 -0.113771 0.388340 -1.722220 2.602032 -137.941558 
0.000000 0.000000 0.000000 -0.000000 1.019410 5.788978 -0.000000 0.000000 1.456275 -0.000000 66.380457 0.000001 -0.000000 0.000002 1.471445 -0.000005 -1.133468 -78.226573 0.625745 0.000000 0.917755 -0.000001 53.165349 0.000001 -0.629534 0.000001 0.940221 0.000002 1.709738 -91.242673 -0.000001 0.113772 1.960660 -88.303875 -151.685838 -0.000000 -0.669732 -0.113771 0.388340 -1.721755 2.610371 -138.412185 
0.000000 0.000000 0.000000 -0.000000 1.019410 5.754620 -0.000000 0.000000 1.456275 -0.000000 65.719821 -0.000002 -0.000000 0.000002 1.471445 -0.000004 -1.133462 -77.762715 0.625745 0.000001 0.917755 -0.000002 53.650975 0.000001 -0.629534 0.000001 0.940221 0.000001 1.709736 -90.701497 -0.000001 0.113772 1.960661 -88.303882 -152.387818 0.000002 -0.669733 -0.113771 0.388340 -1.721169 2.619467 -138.925679 
0.000000 0.000000 0.000000 -0.000000 1.019410 5.717726 -0.000000 -0.000000 1.456275 -0.000000 65.010451 0.000000 -0.000000 0.000002 1.471445 -0.000004 -1.133466 -77.264657 0.625744 0.000001 0.917755 0.000000 54.172426 0.000001 -0.629534 0.000001 0.940221 0.000001 1.709735 -90.120412 -0.000001 0.113772 1.960661 -88.303882 -153.141597 -0.000002 -0.669733 -0.113771 0.388340 -1.720460 2.629225 -139.477053 
0.000000 0.000000 0.000000 -0.000000 1.019410 5.678707 -0.000000 0.000000 1.456275 0.000001 64.260202 -0.000001 -0.000000 0.000002 1.471446 -0.000004 -1.133466 -76.737879 0.625745 0.000000 0.917755 -0.000001 54.723930 -0.000000 -0.629534 0.000001 0.940220 0.000002 1.709735 -89.505831 -0.000001 0.113772 1.960661 -88.303882 -153.938817 0.000001 -0.669733 -0.113771 0.388340 -1.719594 2.639538 -140.060214 
0.000000 0.000000 0.000000 -0.000000 1.019410 5.637969 -0.000000 -0.000000 1.456275 0.000000 63.476882 -0.000001 -0.000000 0.000002 1.471446 -0.000003 -1.133465 -76.187898 0.625745 0.000000 0.917755 -0.000004 55.299735 0.000001 -0.629534 0.000001 0.940220 0.000004 1.709736 -88.864169 -0.000001 0.113772 1.960660 -88.303882 -154.771185 0.000003 -0.669733 -0.113771 0.388341 -1.718581 2.650295 -140.669085 
0.000000 0.000000 0.000000 -0.000000 1.019410 5.595917 -0.000000 0.000000 1.456275 -0.000000 62.668331 0.000001 -0.000000 0.000002 1.471445 -0.000004 -1.133464 -75.620194 0.625745 0.000000 0.917755 -0.000003 55.894098 -0.000002 -0.629533 0.000001 0.940221 0.000003 1.709740 -88.201825 -0.000001 0.113772 1.960661 -88.303875 -155.630341 0.000000 -0.669733 -0.113771 0.388340 -1.717420 2.661388 -141.297571 
0.000000 0.000000 0.000000 -0.000000 1.019410 5.552651 -0.000000 0.000000 1.456275 0.000000 61.836400 -0.000001 -0.000000 0.000002 1.471445 -0.000004 -1.133465 -75.036062 0.625744 0.000001 0.917755 0.000000 56.505646 0.000001 -0.629533 0.000001 0.940221 0.000001 1.709738 -87.520330 -0.000001 0.113772 1.960660 -88.303875 -156.514345 0.000000 -0.669733 -0.113771 0.388341 -1.716091 2.672787 -141.944240 
0.000000 0.000000 0.000000 -0.000000 1.019410 5.507021 -0.000000 0.000000 1.456275 0.000000 60.959070 0.000000 -0.000000 0.000002 1.471445 -0.000005 -1.133465 -74.420061 0.625745 0.000000 0.917755 -0.000001 57.150566 0.000002 -0.629533 0.000001 0.940221 0.000001 1.709735 -86.801650 -0.000001 0.113772 1.960660 -88.303875 -157.446611 0.000002 -0.669733 -0.113771 0.388339 -1.714559 2.684791 -142.626207 
